<svg width="232" height="51" viewBox="0 0 232 51" fill="none" xmlns="http://www.w3.org/2000/svg">
<path d="M2.5025 37.4985C3.56417 37.4682 4.3225 37.2255 4.7775 36.7705C5.2325 36.3155 5.49033 35.7847 5.551 35.178C5.61167 34.541 5.642 33.449 5.642 31.902V12.246C5.642 10.972 5.6875 9.88 5.7785 8.97L2.5025 9.152V7.15H24.388L24.6155 15.1125H23.114C23.114 12.6252 22.568 10.9265 21.476 10.0165C20.4143 9.1065 18.9128 8.68183 16.9715 8.7425L13.0585 8.8335C11.9665 8.86383 11.1778 9.07616 10.6925 9.4705C10.2072 9.8345 9.90383 10.3653 9.7825 11.063C9.66117 11.7303 9.6005 12.792 9.6005 14.248V21.528L18.1545 21.5735L17.836 17.6605H19.838V27.2155H18.3365C18.3365 26.0932 18.2 25.2438 17.927 24.6675C17.654 24.0608 17.2293 23.6665 16.653 23.4845C16.107 23.2722 15.3335 23.166 14.3325 23.166L12.922 23.2115L9.6005 23.348V33.7675C9.6005 35.3448 9.555 36.5278 9.464 37.3165L18.1545 37.18C20.2778 37.1497 21.9007 36.6188 23.023 35.5875C24.1453 34.5258 24.7065 32.7058 24.7065 30.1275H26.2535L25.9805 39H2.5025V37.4985ZM39.6337 39.728C38.208 39.728 36.9037 39.5308 35.7207 39.1365C34.5377 38.7725 33.5215 38.3023 32.6722 37.726L32.8542 39.3185H30.9432L30.6702 31.4925H32.0807C32.1414 32.7362 32.475 33.8433 33.0817 34.814C33.7187 35.7847 34.5377 36.5582 35.5387 37.1345C36.57 37.6805 37.662 37.9535 38.8147 37.9535C40.119 37.9535 41.2717 37.6502 42.2727 37.0435C43.304 36.4065 43.8197 35.5117 43.8197 34.359C43.8197 33.5097 43.5619 32.7968 43.0462 32.2205C42.5609 31.6442 41.939 31.174 41.1807 30.81C40.4527 30.4157 39.4214 29.9607 38.0867 29.445C36.479 28.8383 35.1899 28.2772 34.2192 27.7615C33.2485 27.2155 32.4144 26.4875 31.7167 25.5775C31.019 24.6675 30.6702 23.5148 30.6702 22.1195C30.6702 21.1185 30.9129 20.1175 31.3982 19.1165C31.8835 18.1155 32.7025 17.2662 33.8552 16.5685C35.0079 15.8708 36.5397 15.522 38.4507 15.522C39.391 15.522 40.3465 15.6737 41.3172 15.977C42.3182 16.2803 43.2434 16.7808 44.0927 17.4785L44.0017 15.7495H45.9127V23.712H44.4567C44.3657 21.9527 43.8197 20.436 42.8187 19.162C41.848 17.8577 40.4679 17.2055 38.6782 17.2055C37.3132 17.2055 36.2212 17.5543 35.4022 18.252C34.6135 18.9193 34.2192 19.7232 34.2192 20.6635C34.2192 21.5432 34.477 22.2863 34.9927 22.893C35.5387 23.4997 36.206 24.0153 36.9947 24.44C37.7834 24.8647 38.845 25.3348 40.1797 25.8505C41.757 26.4875 43.031 27.079 44.0017 27.625C44.9724 28.171 45.7914 28.899 46.4587 29.809C47.1564 30.6887 47.5052 31.7655 47.5052 33.0395C47.5052 34.4955 47.126 35.724 46.3677 36.725C45.6397 37.726 44.669 38.4843 43.4557 39C42.2727 39.4853 40.9987 39.728 39.6337 39.728ZM62.4697 39.728C60.4071 39.728 58.5112 39.2578 56.7822 38.3175C55.0836 37.3772 53.7337 36.0273 52.7327 34.268C51.7317 32.5087 51.2312 30.4308 51.2312 28.0345C51.2312 25.9112 51.7317 23.894 52.7327 21.983C53.7641 20.0417 55.1746 18.4795 56.9642 17.2965C58.7842 16.1135 60.8317 15.522 63.1067 15.522C64.7447 15.522 66.2007 15.7798 67.4747 16.2955C68.7487 16.8112 69.7346 17.4937 70.4322 18.343C71.1602 19.1923 71.5242 20.1175 71.5242 21.1185C71.5242 21.8162 71.3271 22.3925 70.9327 22.8475C70.5384 23.3025 69.9924 23.53 69.2947 23.53C68.6274 23.53 68.1269 23.3177 67.7932 22.893C67.4596 22.438 67.2927 21.9678 67.2927 21.4825C67.2927 20.7242 67.5202 20.1175 67.9752 19.6625C67.6416 18.7222 66.9894 18.0852 66.0187 17.7515C65.0784 17.3875 64.1381 17.2055 63.1977 17.2055C61.8024 17.2055 60.5436 17.5847 59.4212 18.343C58.3292 19.1013 57.4647 20.2085 56.8277 21.6645C56.1907 23.1205 55.8722 24.8647 55.8722 26.897C55.8722 28.9293 56.1907 30.7342 56.8277 32.3115C57.4951 33.8888 58.4202 35.1325 59.6032 36.0425C60.7862 36.9222 62.1512 37.362 63.6982 37.362C65.0632 37.362 66.3979 36.998 67.7022 36.27C69.0369 35.5117 70.0834 34.5713 70.8417 33.449L72.0247 34.359C70.9024 36.1183 69.4464 37.453 67.6567 38.363C65.8974 39.273 64.1684 39.728 62.4697 39.728ZM81.8652 39.728C79.6508 39.728 77.9522 39.2275 76.7692 38.2265C75.6165 37.2255 75.0402 35.9212 75.0402 34.3135C75.0402 32.5542 75.7378 31.0678 77.1332 29.8545C78.5588 28.6412 80.3333 27.7463 82.4567 27.17C84.6103 26.5633 86.764 26.2752 88.9177 26.3055V23.4845C88.9177 21.5128 88.6295 19.981 88.0532 18.889C87.4768 17.7667 86.2483 17.2055 84.3677 17.2055C83.4273 17.2055 82.5325 17.4027 81.6832 17.797C80.8338 18.1913 80.212 18.7828 79.8177 19.5715C80.212 19.9962 80.4092 20.5725 80.4092 21.3005C80.4092 21.7555 80.2423 22.1953 79.9087 22.62C79.575 23.0143 79.0897 23.2115 78.4527 23.2115C77.8157 23.2115 77.3152 23.0143 76.9512 22.62C76.5872 22.1953 76.4052 21.6493 76.4052 20.982C76.4052 19.981 76.7843 19.071 77.5427 18.252C78.3313 17.4027 79.4082 16.7353 80.7732 16.25C82.1685 15.7647 83.7155 15.522 85.4142 15.522C87.9622 15.522 89.8428 16.2045 91.0562 17.5695C92.2695 18.9042 92.861 21.0275 92.8307 23.9395L92.7852 34.177C92.7852 35.1477 92.7245 36.179 92.6032 37.271L95.8337 37.089V39H89.3272C89.2362 38.545 89.13 37.6805 89.0087 36.4065C86.7943 38.6208 84.4132 39.728 81.8652 39.728ZM82.9117 37.1345C84.0643 37.1345 85.1108 36.9222 86.0512 36.4975C86.9915 36.0425 87.947 35.36 88.9177 34.45C88.8873 33.995 88.8722 33.2215 88.8722 32.1295L88.9177 27.8525C86.4303 27.9435 84.216 28.4592 82.2747 29.3995C80.3333 30.3095 79.3627 31.72 79.3627 33.631C79.3627 34.7533 79.6963 35.6178 80.3637 36.2245C81.031 36.8312 81.8803 37.1345 82.9117 37.1345ZM98.5466 49.2375C99.4263 49.2375 100.048 49.01 100.412 48.555C100.806 48.1303 101.034 47.5843 101.095 46.917C101.155 46.28 101.201 45.2032 101.231 43.6865L101.322 21.71C101.322 20.436 101.383 19.4502 101.504 18.7525L98.2736 18.9345V17.0235C100.063 17.0235 101.292 16.9325 101.959 16.7505C102.626 16.5382 103.172 16.2197 103.597 15.795H104.962C105.083 17.2813 105.144 18.1003 105.144 18.252C106.054 17.433 107.146 16.7808 108.42 16.2955C109.694 15.7798 110.953 15.522 112.197 15.522C113.986 15.522 115.639 15.9922 117.156 16.9325C118.673 17.8425 119.886 19.162 120.796 20.891C121.736 22.5897 122.207 24.5613 122.207 26.806C122.207 29.3237 121.676 31.5683 120.614 33.54C119.552 35.4813 118.127 36.998 116.337 38.09C114.578 39.182 112.667 39.728 110.604 39.728C108.511 39.728 106.691 39.2275 105.144 38.2265V45.7795C105.144 47.1445 105.083 48.1758 104.962 48.8735L107.829 48.737V50.6025H98.5466V49.2375ZM110.513 37.908C111.939 37.908 113.167 37.4682 114.199 36.5885C115.26 35.7088 116.079 34.4803 116.656 32.903C117.232 31.3257 117.52 29.536 117.52 27.534C117.52 24.804 116.929 22.4987 115.746 20.618C114.593 18.707 112.864 17.7515 110.559 17.7515C109.558 17.7515 108.587 17.9942 107.647 18.4795C106.706 18.9648 105.887 19.5715 105.19 20.2995C105.22 20.5118 105.235 21.437 105.235 23.075L105.19 36.1335C106.737 37.3165 108.511 37.908 110.513 37.908ZM137.116 39.728C135.023 39.728 133.127 39.2427 131.429 38.272C129.76 37.271 128.441 35.8605 127.47 34.0405C126.499 32.1902 126.014 30.0668 126.014 27.6705C126.014 25.5472 126.499 23.5603 127.47 21.71C128.441 19.8293 129.791 18.3278 131.52 17.2055C133.279 16.0832 135.266 15.522 137.48 15.522C139.209 15.522 140.771 15.9012 142.167 16.6595C143.562 17.4178 144.669 18.5553 145.488 20.072C146.307 21.5583 146.717 23.3935 146.717 25.5775L130.701 25.8505C130.67 29.4905 131.262 32.3267 132.475 34.359C133.719 36.3913 135.63 37.4075 138.208 37.4075C139.603 37.4075 141.029 37.0435 142.485 36.3155C143.971 35.5875 145.109 34.6927 145.898 33.631L146.99 34.541C145.837 36.3003 144.335 37.6047 142.485 38.454C140.665 39.3033 138.875 39.728 137.116 39.728ZM142.44 23.9395C142.44 22.1195 142.03 20.5573 141.211 19.253C140.392 17.9487 139.164 17.2965 137.526 17.2965C133.764 17.2965 131.535 19.5108 130.837 23.9395H142.44ZM154.315 39.728C153.587 39.728 152.965 39.455 152.449 38.909C151.934 38.3327 151.676 37.635 151.676 36.816C151.676 35.997 151.934 35.2993 152.449 34.723C152.995 34.1467 153.632 33.8585 154.36 33.8585C155.119 33.8585 155.74 34.1467 156.226 34.723C156.741 35.2993 156.999 35.997 156.999 36.816C156.999 37.635 156.726 38.3327 156.18 38.909C155.665 39.455 155.043 39.728 154.315 39.728Z" fill="white"/>
<path d="M165.503 38.6602C166.452 38.6602 167.285 38.401 168.003 37.8826C168.729 37.3562 169.195 36.6504 169.403 35.7651V33.552C169.363 33.552 169.12 33.5719 168.673 33.6118C168.234 33.6517 167.947 33.6756 167.812 33.6836C166.081 33.8351 164.873 34.1182 164.187 34.533C163.509 34.9477 163.17 35.6136 163.17 36.5308C163.17 37.2326 163.378 37.7629 163.792 38.1218C164.207 38.4807 164.777 38.6602 165.503 38.6602ZM169.845 40C169.726 39.4896 169.61 38.9393 169.499 38.3491C168.773 39.0749 168.091 39.5773 167.453 39.8564C166.815 40.1356 166.065 40.2751 165.204 40.2751C163.976 40.2751 162.987 39.9561 162.237 39.3181C161.495 38.6721 161.125 37.747 161.125 36.5427C161.125 35.2029 161.631 34.21 162.644 33.564C163.665 32.918 165.132 32.5152 167.046 32.3557C167.309 32.3318 167.704 32.2999 168.23 32.26C168.765 32.2122 169.164 32.1763 169.427 32.1523V30.9919C169.427 30.0668 169.211 29.3809 168.781 28.9343C168.35 28.4877 167.672 28.2644 166.747 28.2644C165.455 28.2644 164.151 28.5834 162.835 29.2214C162.795 29.1257 162.692 28.8506 162.524 28.396C162.357 27.9334 162.269 27.6942 162.261 27.6782C162.843 27.3512 163.533 27.092 164.331 26.9006C165.136 26.7013 165.954 26.6016 166.783 26.6016C168.418 26.6016 169.594 26.9604 170.312 27.6782C171.038 28.388 171.401 29.6003 171.401 31.3149V40H169.845ZM174.391 35.6216V26.8767H176.401V35.6455C176.401 36.2197 176.481 36.7062 176.64 37.105C176.808 37.5037 177.043 37.8148 177.346 38.0381C177.657 38.2534 178.004 38.4089 178.387 38.5046C178.778 38.6003 179.224 38.6482 179.727 38.6482C180.764 38.6482 181.569 38.4209 182.143 37.9663C182.726 37.5117 183.017 36.7381 183.017 35.6455V26.8767H185.026V35.6216C185.026 36.2915 184.931 36.8936 184.739 37.428C184.548 37.9623 184.289 38.4089 183.962 38.7678C183.643 39.1187 183.256 39.4098 182.801 39.6411C182.347 39.8724 181.864 40.0399 181.354 40.1436C180.851 40.2472 180.309 40.2991 179.727 40.2991C179.153 40.2991 178.61 40.2472 178.1 40.1436C177.589 40.0399 177.103 39.8724 176.64 39.6411C176.186 39.4019 175.791 39.1068 175.456 38.7559C175.129 38.397 174.87 37.9504 174.678 37.416C174.487 36.8817 174.391 36.2835 174.391 35.6216ZM192.192 40.2393C190.9 40.2393 189.983 39.9242 189.441 39.2942C188.898 38.6641 188.611 37.6473 188.579 36.2437V28.3601H186.629L186.713 27.0442L188.567 26.8767L189.249 23.874L190.565 23.8262V26.8767H194.214V28.3601H190.565V35.8848C190.565 36.8817 190.717 37.5835 191.02 37.9902C191.323 38.397 191.841 38.6003 192.575 38.6003C192.838 38.6003 193.408 38.5365 194.286 38.4089L194.369 39.988C193.42 40.1555 192.695 40.2393 192.192 40.2393ZM205.339 40V32.0686C205.339 30.7527 205.128 29.7957 204.705 29.1975C204.291 28.5994 203.561 28.3003 202.516 28.3003C201.511 28.3003 200.662 28.5515 199.968 29.054C199.282 29.5564 198.836 30.2064 198.628 31.0039C198.556 31.6021 198.521 32.268 198.521 33.0017V40H196.523V21.7805L198.521 21.6609V26.9963C198.521 27.4509 198.505 28.0132 198.473 28.6831C199.597 27.2954 201.089 26.6016 202.947 26.6016C205.874 26.6016 207.337 28.3202 207.337 31.7576V40H205.339ZM211.261 33.4683C211.261 35.0234 211.604 36.2716 212.29 37.2126C212.984 38.1458 213.993 38.6123 215.316 38.6123C216.624 38.6123 217.609 38.1458 218.271 37.2126C218.941 36.2795 219.276 35.0234 219.276 33.4443C219.276 31.8413 218.945 30.5812 218.283 29.6641C217.629 28.7389 216.628 28.2764 215.281 28.2764C213.973 28.2764 212.976 28.7469 212.29 29.688C211.604 30.6291 211.261 31.8892 211.261 33.4683ZM221.346 33.4324C221.346 35.4661 220.803 37.1169 219.719 38.385C218.634 39.6451 217.135 40.2751 215.221 40.2751C213.378 40.2751 211.911 39.6371 210.818 38.3611C209.734 37.085 209.191 35.4461 209.191 33.4443C209.191 31.4027 209.738 29.7518 210.83 28.4917C211.923 27.2316 213.422 26.6016 215.328 26.6016C217.203 26.6016 218.674 27.2356 219.743 28.5037C220.811 29.7638 221.346 31.4067 221.346 33.4324ZM230.067 26.7571C230.426 26.7571 230.753 26.781 231.048 26.8289L230.976 28.6711C230.609 28.6073 230.29 28.5754 230.019 28.5754C228.902 28.5754 227.993 28.9662 227.291 29.7478C226.597 30.5214 226.25 31.4824 226.25 32.6309V40H224.253C224.245 31.945 224.241 27.5706 224.241 26.8767H225.904L226.095 29.2334C226.55 28.4917 227.128 27.8936 227.83 27.439C228.531 26.9844 229.277 26.7571 230.067 26.7571Z" fill="white"/>
</svg>
