<svg width="85" height="24" viewBox="0 0 85 24" fill="none" xmlns="http://www.w3.org/2000/svg">
<path d="M23 19C23 19.5304 22.7893 20.0391 22.4142 20.4142C22.0391 20.7893 21.5304 21 21 21H3C2.46957 21 1.96086 20.7893 1.58579 20.4142C1.21071 20.0391 1 19.5304 1 19V8C1 7.46957 1.21071 6.96086 1.58579 6.58579C1.96086 6.21071 2.46957 6 3 6H7L9 3H15L17 6H21C21.5304 6 22.0391 6.21071 22.4142 6.58579C22.7893 6.96086 23 7.46957 23 8V19Z" stroke="black" stroke-linecap="round" stroke-linejoin="round"/>
<path d="M12 17C14.2091 17 16 15.2091 16 13C16 10.7909 14.2091 9 12 9C9.79086 9 8 10.7909 8 13C8 15.2091 9.79086 17 12 17Z" stroke="black" stroke-linecap="round" stroke-linejoin="round"/>
<path d="M42.2812 6.44531V13.9453C42.2812 15.2734 41.9167 16.3099 41.1875 17.0547C40.4635 17.7995 39.3594 18.1719 37.875 18.1719C36.3906 18.1719 35.2943 17.7995 34.5859 17.0547C33.8776 16.3099 33.5234 15.2682 33.5234 13.9297V6.44531H34.8828V13.9531C34.8828 15 35.1302 15.7708 35.625 16.2656C36.1198 16.7604 36.8854 17.0078 37.9219 17.0078C38.9323 17.0078 39.6849 16.7578 40.1797 16.2578C40.6797 15.7578 40.9297 14.987 40.9297 13.9453V6.44531H42.2812ZM44.6562 21.7188V9.42969H45.8047L45.9297 10.5938C46.6797 9.69792 47.5807 9.25 48.6328 9.25C49.4141 9.25 50.0755 9.44531 50.6172 9.83594C51.1589 10.2266 51.5573 10.7552 51.8125 11.4219C52.0729 12.0885 52.2031 12.8672 52.2031 13.7578C52.2031 14.612 52.0625 15.3724 51.7812 16.0391C51.5 16.7005 51.0859 17.224 50.5391 17.6094C49.9974 17.9896 49.362 18.1797 48.6328 18.1797C48.0807 18.1797 47.5625 18.0573 47.0781 17.8125C46.5938 17.5625 46.2057 17.2344 45.9141 16.8281C45.9453 17.3906 45.9609 17.9375 45.9609 18.4688V21.6328L44.6562 21.7188ZM48.4531 17.0781C48.849 17.0781 49.2031 16.9896 49.5156 16.8125C49.8281 16.6302 50.0807 16.3828 50.2734 16.0703C50.4661 15.7578 50.612 15.4036 50.7109 15.0078C50.8099 14.6068 50.8594 14.1745 50.8594 13.7109C50.8594 12.7318 50.6536 11.9297 50.2422 11.3047C49.8307 10.6745 49.2292 10.3594 48.4375 10.3594C46.7812 10.3594 45.9531 11.4297 45.9531 13.5703C45.9531 14.7318 46.1458 15.6068 46.5312 16.1953C46.9219 16.7839 47.5625 17.0781 48.4531 17.0781ZM56.3516 18.1562C55.5182 18.1562 54.9271 17.9323 54.5781 17.4844C54.2344 17.0365 54.0625 16.2578 54.0625 15.1484V6.10156L55.3594 6.02344V14.6328C55.3594 14.987 55.362 15.2708 55.3672 15.4844C55.3776 15.6979 55.3984 15.9089 55.4297 16.1172C55.4609 16.3203 55.5026 16.474 55.5547 16.5781C55.6068 16.6823 55.6823 16.7786 55.7812 16.8672C55.8802 16.9505 55.9974 17.0078 56.1328 17.0391C56.2734 17.0651 56.4453 17.0781 56.6484 17.0781C56.8151 17.0781 57.1432 17.0469 57.6328 16.9844L57.7031 18.0234C57.1667 18.112 56.7161 18.1562 56.3516 18.1562ZM59.4531 13.7344C59.4531 14.75 59.6771 15.5651 60.125 16.1797C60.5781 16.7891 61.237 17.0938 62.1016 17.0938C62.9557 17.0938 63.599 16.7891 64.0312 16.1797C64.4688 15.5703 64.6875 14.75 64.6875 13.7188C64.6875 12.6719 64.4714 11.849 64.0391 11.25C63.612 10.6458 62.9583 10.3438 62.0781 10.3438C61.224 10.3438 60.5729 10.651 60.125 11.2656C59.6771 11.8802 59.4531 12.7031 59.4531 13.7344ZM66.0391 13.7109C66.0391 15.0391 65.6849 16.1172 64.9766 16.9453C64.2682 17.7682 63.2891 18.1797 62.0391 18.1797C60.8359 18.1797 59.8776 17.763 59.1641 16.9297C58.4557 16.0964 58.1016 15.026 58.1016 13.7188C58.1016 12.3854 58.4583 11.3073 59.1719 10.4844C59.8854 9.66146 60.8646 9.25 62.1094 9.25C63.3333 9.25 64.2943 9.66406 64.9922 10.4922C65.6901 11.3151 66.0391 12.388 66.0391 13.7109ZM70.2422 17.125C70.862 17.125 71.4062 16.9557 71.875 16.6172C72.349 16.2734 72.6536 15.8125 72.7891 15.2344V13.7891C72.763 13.7891 72.6042 13.8021 72.3125 13.8281C72.026 13.8542 71.8385 13.8698 71.75 13.875C70.6198 13.974 69.8307 14.1589 69.3828 14.4297C68.9401 14.7005 68.7188 15.1354 68.7188 15.7344C68.7188 16.1927 68.8542 16.5391 69.125 16.7734C69.3958 17.0078 69.7682 17.125 70.2422 17.125ZM73.0781 18C73 17.6667 72.9245 17.3073 72.8516 16.9219C72.3776 17.3958 71.9323 17.724 71.5156 17.9062C71.099 18.0885 70.6094 18.1797 70.0469 18.1797C69.2448 18.1797 68.599 17.9714 68.1094 17.5547C67.625 17.1328 67.3828 16.5286 67.3828 15.7422C67.3828 14.8672 67.7135 14.2188 68.375 13.7969C69.0417 13.375 70 13.112 71.25 13.0078C71.4219 12.9922 71.6797 12.9714 72.0234 12.9453C72.3724 12.9141 72.6328 12.8906 72.8047 12.875V12.1172C72.8047 11.513 72.6641 11.0651 72.3828 10.7734C72.1016 10.4818 71.6589 10.3359 71.0547 10.3359C70.2109 10.3359 69.3594 10.5443 68.5 10.9609C68.474 10.8984 68.4062 10.7188 68.2969 10.4219C68.1875 10.1198 68.1302 9.96354 68.125 9.95312C68.5052 9.73958 68.9557 9.57031 69.4766 9.44531C70.0026 9.3151 70.5365 9.25 71.0781 9.25C72.1458 9.25 72.9141 9.48438 73.3828 9.95312C73.8568 10.4167 74.0938 11.2083 74.0938 12.3281V18H73.0781ZM79.6875 17.0547C80.5469 17.0547 81.1849 16.7786 81.6016 16.2266C82.0234 15.6745 82.2344 14.8854 82.2344 13.8594C82.2344 12.7031 82.0312 11.8333 81.625 11.25C81.224 10.6615 80.5729 10.3672 79.6719 10.3672C79.2708 10.3672 78.9167 10.4531 78.6094 10.625C78.3021 10.7969 78.0547 11.0365 77.8672 11.3438C77.6797 11.651 77.5365 12.0052 77.4375 12.4062C77.3438 12.8021 77.2969 13.237 77.2969 13.7109C77.2969 14.3776 77.3776 14.9557 77.5391 15.4453C77.7057 15.9349 77.9714 16.3255 78.3359 16.6172C78.7005 16.9089 79.151 17.0547 79.6875 17.0547ZM82.2578 16.7578C81.9766 17.1901 81.6016 17.5339 81.1328 17.7891C80.6641 18.0443 80.1406 18.1719 79.5625 18.1719C78.4323 18.1719 77.5469 17.7708 76.9062 16.9688C76.2656 16.1615 75.9453 15.0651 75.9453 13.6797C75.9453 12.3568 76.2708 11.2891 76.9219 10.4766C77.5729 9.65885 78.4453 9.25 79.5391 9.25C80.1068 9.25 80.6406 9.375 81.1406 9.625C81.6458 9.86979 82.0234 10.2005 82.2734 10.6172L82.25 9.875V6.10156L83.5391 6.02344V18H82.4297L82.2578 16.7578Z" fill="#2E2E2E"/>
</svg>
