<svg width="91" height="24" viewBox="0 0 91 24" fill="none" xmlns="http://www.w3.org/2000/svg">
<path fill-rule="evenodd" clip-rule="evenodd" d="M8.93934 2.93934C9.22064 2.65804 9.60218 2.5 10 2.5H14C14.3978 2.5 14.7794 2.65804 15.0607 2.93934C15.342 3.22064 15.5 3.60218 15.5 4V5.5H8.5V4C8.5 3.60218 8.65804 3.22064 8.93934 2.93934ZM7.5 5.5V4C7.5 3.33696 7.76339 2.70107 8.23223 2.23223C8.70107 1.76339 9.33696 1.5 10 1.5H14C14.663 1.5 15.2989 1.76339 15.7678 2.23223C16.2366 2.70107 16.5 3.33696 16.5 4V5.5H19H21C21.2761 5.5 21.5 5.72386 21.5 6C21.5 6.27614 21.2761 6.5 21 6.5H19.5V20C19.5 20.663 19.2366 21.2989 18.7678 21.7678C18.2989 22.2366 17.663 22.5 17 22.5H7C6.33696 22.5 5.70107 22.2366 5.23223 21.7678C4.76339 21.2989 4.5 20.663 4.5 20V6.5H3C2.72386 6.5 2.5 6.27614 2.5 6C2.5 5.72386 2.72386 5.5 3 5.5H5H7.5ZM5.5 6.5H8H16H18.5V20C18.5 20.3978 18.342 20.7794 18.0607 21.0607C17.7794 21.342 17.3978 21.5 17 21.5H7C6.60218 21.5 6.22064 21.342 5.93934 21.0607C5.65804 20.7794 5.5 20.3978 5.5 20V6.5ZM10 10.5C10.2761 10.5 10.5 10.7239 10.5 11V17C10.5 17.2761 10.2761 17.5 10 17.5C9.72386 17.5 9.5 17.2761 9.5 17V11C9.5 10.7239 9.72386 10.5 10 10.5ZM14.5 11C14.5 10.7239 14.2761 10.5 14 10.5C13.7239 10.5 13.5 10.7239 13.5 11V17C13.5 17.2761 13.7239 17.5 14 17.5C14.2761 17.5 14.5 17.2761 14.5 17V11Z" fill="#E86961"/>
<path d="M34.5859 7.52344V11.4297C34.7995 11.4297 35.2396 11.4349 35.9062 11.4453C36.5781 11.4557 37.0964 11.4609 37.4609 11.4609C38.4557 11.4609 39.1484 11.2969 39.5391 10.9688C39.9297 10.6354 40.125 10.1094 40.125 9.39062C40.125 8.76042 39.9375 8.29167 39.5625 7.98438C39.1875 7.67708 38.5599 7.52344 37.6797 7.52344H34.5859ZM41.9922 18H40.4297L38.8359 14.375C38.4036 13.401 38.1276 12.8151 38.0078 12.6172C37.6276 12.6432 37.1771 12.6562 36.6562 12.6562L34.5859 12.5938V18H33.2031V6.3125H36.8984C37.3255 6.3125 37.7031 6.32292 38.0312 6.34375C38.3594 6.36458 38.6849 6.40365 39.0078 6.46094C39.3359 6.51302 39.6198 6.58854 39.8594 6.6875C40.099 6.78125 40.3229 6.90625 40.5312 7.0625C40.7396 7.21354 40.9062 7.39583 41.0312 7.60938C41.1615 7.82292 41.263 8.07812 41.3359 8.375C41.4089 8.66667 41.4453 8.9974 41.4453 9.36719C41.4453 10.0964 41.2526 10.724 40.8672 11.25C40.487 11.776 39.9453 12.1406 39.2422 12.3438C39.2422 12.3542 39.2943 12.4479 39.3984 12.625C39.5026 12.8021 39.625 13.0208 39.7656 13.2812C39.9115 13.5365 40.0234 13.75 40.1016 13.9219L41.9922 18ZM48.5781 11.0156C48.1979 10.5573 47.6745 10.3281 47.0078 10.3281C46.3411 10.3281 45.7969 10.5651 45.375 11.0391C44.9531 11.5078 44.7057 12.151 44.6328 12.9688H49.1562C49.1562 12.1198 48.9635 11.4688 48.5781 11.0156ZM47.2656 18.1797C46.0208 18.1797 45.0391 17.7839 44.3203 16.9922C43.6068 16.2005 43.25 15.1172 43.25 13.7422C43.25 12.4141 43.5964 11.3385 44.2891 10.5156C44.9818 9.6875 45.8932 9.26562 47.0234 9.25C48.0859 9.25 48.9271 9.61458 49.5469 10.3438C50.1719 11.0677 50.4844 12.0365 50.4844 13.25C50.4844 13.3125 50.4818 13.4271 50.4766 13.5938C50.4766 13.7604 50.4766 13.8802 50.4766 13.9531H44.5938C44.6094 14.9271 44.8594 15.6875 45.3438 16.2344C45.8333 16.776 46.4896 17.0469 47.3125 17.0469C48.2188 17.0469 49.1276 16.8073 50.0391 16.3281L50.2422 17.3828C49.3724 17.9141 48.3802 18.1797 47.2656 18.1797ZM63.1797 18V13.5391C63.1797 13.1224 63.1693 12.7734 63.1484 12.4922C63.1328 12.2109 63.0911 11.9245 63.0234 11.6328C62.9609 11.3411 62.8698 11.112 62.75 10.9453C62.6354 10.7734 62.474 10.6354 62.2656 10.5312C62.0573 10.4219 61.8073 10.3672 61.5156 10.3672C60.9427 10.3672 60.4531 10.5208 60.0469 10.8281C59.6458 11.1354 59.3594 11.5677 59.1875 12.125C59.1406 12.5 59.1172 12.901 59.1172 13.3281V18H57.8125V13.3984C57.8125 13.013 57.7995 12.6797 57.7734 12.3984C57.7474 12.112 57.6979 11.8359 57.625 11.5703C57.5521 11.2995 57.4531 11.0807 57.3281 10.9141C57.2083 10.7474 57.0469 10.6146 56.8438 10.5156C56.6406 10.4167 56.3984 10.3672 56.1172 10.3672C55.4922 10.3672 54.9661 10.526 54.5391 10.8438C54.1172 11.1615 53.8333 11.5833 53.6875 12.1094C53.6406 12.5104 53.6172 12.9453 53.6172 13.4141V18H52.3125C52.3021 12.6406 52.2969 9.78385 52.2969 9.42969H53.3906L53.5547 10.6562C53.8151 10.2604 54.1849 9.92708 54.6641 9.65625C55.1432 9.38542 55.6875 9.25 56.2969 9.25C56.6146 9.25 56.9062 9.28385 57.1719 9.35156C57.4427 9.41406 57.6667 9.49479 57.8438 9.59375C58.026 9.69271 58.1875 9.8125 58.3281 9.95312C58.4688 10.0885 58.5781 10.224 58.6562 10.3594C58.7344 10.4896 58.7995 10.6276 58.8516 10.7734C59.4766 9.75781 60.4323 9.25 61.7188 9.25C62.6719 9.25 63.3698 9.52344 63.8125 10.0703C64.2604 10.612 64.4844 11.4167 64.4844 12.4844V18H63.1797ZM67.1094 13.7344C67.1094 14.75 67.3333 15.5651 67.7812 16.1797C68.2344 16.7891 68.8932 17.0938 69.7578 17.0938C70.612 17.0938 71.2552 16.7891 71.6875 16.1797C72.125 15.5703 72.3438 14.75 72.3438 13.7188C72.3438 12.6719 72.1276 11.849 71.6953 11.25C71.2682 10.6458 70.6146 10.3438 69.7344 10.3438C68.8802 10.3438 68.2292 10.651 67.7812 11.2656C67.3333 11.8802 67.1094 12.7031 67.1094 13.7344ZM73.6953 13.7109C73.6953 15.0391 73.3411 16.1172 72.6328 16.9453C71.9245 17.7682 70.9453 18.1797 69.6953 18.1797C68.4922 18.1797 67.5339 17.763 66.8203 16.9297C66.112 16.0964 65.7578 15.026 65.7578 13.7188C65.7578 12.3854 66.1146 11.3073 66.8281 10.4844C67.5417 9.66146 68.5208 9.25 69.7656 9.25C70.9896 9.25 71.9505 9.66406 72.6484 10.4922C73.3464 11.3151 73.6953 12.388 73.6953 13.7109ZM77.6484 18L74.3281 9.42969H75.7266L77.6172 14.5234C77.6172 14.5234 77.8776 15.2474 78.3984 16.6953C78.5755 16.138 78.8203 15.4193 79.1328 14.5391C79.5286 13.4297 80.1432 11.7266 80.9766 9.42969H82.3672L79.0703 18H77.6484ZM88.3438 11.0156C87.9635 10.5573 87.4401 10.3281 86.7734 10.3281C86.1068 10.3281 85.5625 10.5651 85.1406 11.0391C84.7188 11.5078 84.4714 12.151 84.3984 12.9688H88.9219C88.9219 12.1198 88.7292 11.4688 88.3438 11.0156ZM87.0312 18.1797C85.7865 18.1797 84.8047 17.7839 84.0859 16.9922C83.3724 16.2005 83.0156 15.1172 83.0156 13.7422C83.0156 12.4141 83.362 11.3385 84.0547 10.5156C84.7474 9.6875 85.6589 9.26562 86.7891 9.25C87.8516 9.25 88.6927 9.61458 89.3125 10.3438C89.9375 11.0677 90.25 12.0365 90.25 13.25C90.25 13.3125 90.2474 13.4271 90.2422 13.5938C90.2422 13.7604 90.2422 13.8802 90.2422 13.9531H84.3594C84.375 14.9271 84.625 15.6875 85.1094 16.2344C85.599 16.776 86.2552 17.0469 87.0781 17.0469C87.9844 17.0469 88.8932 16.8073 89.8047 16.3281L90.0078 17.3828C89.138 17.9141 88.1458 18.1797 87.0312 18.1797Z" fill="#E86961"/>
</svg>
