<svg width="51" height="16" viewBox="0 0 51 16" fill="none" xmlns="http://www.w3.org/2000/svg">
<path d="M9.28125 0.445312V7.94531C9.28125 9.27344 8.91667 10.3099 8.1875 11.0547C7.46354 11.7995 6.35938 12.1719 4.875 12.1719C3.39062 12.1719 2.29427 11.7995 1.58594 11.0547C0.877604 10.3099 0.523438 9.26823 0.523438 7.92969V0.445312H1.88281V7.95312C1.88281 9 2.13021 9.77083 2.625 10.2656C3.11979 10.7604 3.88542 11.0078 4.92188 11.0078C5.93229 11.0078 6.6849 10.7578 7.17969 10.2578C7.67969 9.75781 7.92969 8.98698 7.92969 7.94531V0.445312H9.28125ZM11.6562 15.7188V3.42969H12.8047L12.9297 4.59375C13.6797 3.69792 14.5807 3.25 15.6328 3.25C16.4141 3.25 17.0755 3.44531 17.6172 3.83594C18.1589 4.22656 18.5573 4.75521 18.8125 5.42188C19.0729 6.08854 19.2031 6.86719 19.2031 7.75781C19.2031 8.61198 19.0625 9.3724 18.7812 10.0391C18.5 10.7005 18.0859 11.224 17.5391 11.6094C16.9974 11.9896 16.362 12.1797 15.6328 12.1797C15.0807 12.1797 14.5625 12.0573 14.0781 11.8125C13.5938 11.5625 13.2057 11.2344 12.9141 10.8281C12.9453 11.3906 12.9609 11.9375 12.9609 12.4688V15.6328L11.6562 15.7188ZM15.4531 11.0781C15.849 11.0781 16.2031 10.9896 16.5156 10.8125C16.8281 10.6302 17.0807 10.3828 17.2734 10.0703C17.4661 9.75781 17.612 9.40365 17.7109 9.00781C17.8099 8.60677 17.8594 8.17448 17.8594 7.71094C17.8594 6.73177 17.6536 5.92969 17.2422 5.30469C16.8307 4.67448 16.2292 4.35938 15.4375 4.35938C13.7812 4.35938 12.9531 5.42969 12.9531 7.57031C12.9531 8.73177 13.1458 9.60677 13.5312 10.1953C13.9219 10.7839 14.5625 11.0781 15.4531 11.0781ZM23.3516 12.1562C22.5182 12.1562 21.9271 11.9323 21.5781 11.4844C21.2344 11.0365 21.0625 10.2578 21.0625 9.14844V0.101562L22.3594 0.0234375V8.63281C22.3594 8.98698 22.362 9.27083 22.3672 9.48438C22.3776 9.69792 22.3984 9.90885 22.4297 10.1172C22.4609 10.3203 22.5026 10.474 22.5547 10.5781C22.6068 10.6823 22.6823 10.7786 22.7812 10.8672C22.8802 10.9505 22.9974 11.0078 23.1328 11.0391C23.2734 11.0651 23.4453 11.0781 23.6484 11.0781C23.8151 11.0781 24.1432 11.0469 24.6328 10.9844L24.7031 12.0234C24.1667 12.112 23.7161 12.1562 23.3516 12.1562ZM26.4531 7.73438C26.4531 8.75 26.6771 9.5651 27.125 10.1797C27.5781 10.7891 28.237 11.0938 29.1016 11.0938C29.9557 11.0938 30.599 10.7891 31.0312 10.1797C31.4688 9.57031 31.6875 8.75 31.6875 7.71875C31.6875 6.67188 31.4714 5.84896 31.0391 5.25C30.612 4.64583 29.9583 4.34375 29.0781 4.34375C28.224 4.34375 27.5729 4.65104 27.125 5.26562C26.6771 5.88021 26.4531 6.70312 26.4531 7.73438ZM33.0391 7.71094C33.0391 9.03906 32.6849 10.1172 31.9766 10.9453C31.2682 11.7682 30.2891 12.1797 29.0391 12.1797C27.8359 12.1797 26.8776 11.763 26.1641 10.9297C25.4557 10.0964 25.1016 9.02604 25.1016 7.71875C25.1016 6.38542 25.4583 5.30729 26.1719 4.48438C26.8854 3.66146 27.8646 3.25 29.1094 3.25C30.3333 3.25 31.2943 3.66406 31.9922 4.49219C32.6901 5.3151 33.0391 6.38802 33.0391 7.71094ZM37.2422 11.125C37.862 11.125 38.4062 10.9557 38.875 10.6172C39.349 10.2734 39.6536 9.8125 39.7891 9.23438V7.78906C39.763 7.78906 39.6042 7.80208 39.3125 7.82812C39.026 7.85417 38.8385 7.86979 38.75 7.875C37.6198 7.97396 36.8307 8.15885 36.3828 8.42969C35.9401 8.70052 35.7188 9.13542 35.7188 9.73438C35.7188 10.1927 35.8542 10.5391 36.125 10.7734C36.3958 11.0078 36.7682 11.125 37.2422 11.125ZM40.0781 12C40 11.6667 39.9245 11.3073 39.8516 10.9219C39.3776 11.3958 38.9323 11.724 38.5156 11.9062C38.099 12.0885 37.6094 12.1797 37.0469 12.1797C36.2448 12.1797 35.599 11.9714 35.1094 11.5547C34.625 11.1328 34.3828 10.5286 34.3828 9.74219C34.3828 8.86719 34.7135 8.21875 35.375 7.79688C36.0417 7.375 37 7.11198 38.25 7.00781C38.4219 6.99219 38.6797 6.97135 39.0234 6.94531C39.3724 6.91406 39.6328 6.89062 39.8047 6.875V6.11719C39.8047 5.51302 39.6641 5.0651 39.3828 4.77344C39.1016 4.48177 38.6589 4.33594 38.0547 4.33594C37.2109 4.33594 36.3594 4.54427 35.5 4.96094C35.474 4.89844 35.4062 4.71875 35.2969 4.42188C35.1875 4.11979 35.1302 3.96354 35.125 3.95312C35.5052 3.73958 35.9557 3.57031 36.4766 3.44531C37.0026 3.3151 37.5365 3.25 38.0781 3.25C39.1458 3.25 39.9141 3.48438 40.3828 3.95312C40.8568 4.41667 41.0938 5.20833 41.0938 6.32812V12H40.0781ZM46.6875 11.0547C47.5469 11.0547 48.1849 10.7786 48.6016 10.2266C49.0234 9.67448 49.2344 8.88542 49.2344 7.85938C49.2344 6.70312 49.0312 5.83333 48.625 5.25C48.224 4.66146 47.5729 4.36719 46.6719 4.36719C46.2708 4.36719 45.9167 4.45312 45.6094 4.625C45.3021 4.79688 45.0547 5.03646 44.8672 5.34375C44.6797 5.65104 44.5365 6.00521 44.4375 6.40625C44.3438 6.80208 44.2969 7.23698 44.2969 7.71094C44.2969 8.3776 44.3776 8.95573 44.5391 9.44531C44.7057 9.9349 44.9714 10.3255 45.3359 10.6172C45.7005 10.9089 46.151 11.0547 46.6875 11.0547ZM49.2578 10.7578C48.9766 11.1901 48.6016 11.5339 48.1328 11.7891C47.6641 12.0443 47.1406 12.1719 46.5625 12.1719C45.4323 12.1719 44.5469 11.7708 43.9062 10.9688C43.2656 10.1615 42.9453 9.0651 42.9453 7.67969C42.9453 6.35677 43.2708 5.28906 43.9219 4.47656C44.5729 3.65885 45.4453 3.25 46.5391 3.25C47.1068 3.25 47.6406 3.375 48.1406 3.625C48.6458 3.86979 49.0234 4.20052 49.2734 4.61719L49.25 3.875V0.101562L50.5391 0.0234375V12H49.4297L49.2578 10.7578Z" fill="#2E2E2E"/>
</svg>
