<svg width="122" height="24" viewBox="0 0 122 24" fill="none" xmlns="http://www.w3.org/2000/svg">
<path d="M23 19C23 19.5304 22.7893 20.0391 22.4142 20.4142C22.0391 20.7893 21.5304 21 21 21H3C2.46957 21 1.96086 20.7893 1.58579 20.4142C1.21071 20.0391 1 19.5304 1 19V8C1 7.46957 1.21071 6.96086 1.58579 6.58579C1.96086 6.21071 2.46957 6 3 6H7L9 3H15L17 6H21C21.5304 6 22.0391 6.21071 22.4142 6.58579C22.7893 6.96086 23 7.46957 23 8V19Z" stroke="black" stroke-linecap="round" stroke-linejoin="round"/>
<path d="M12 17C14.2091 17 16 15.2091 16 13C16 10.7909 14.2091 9 12 9C9.79086 9 8 10.7909 8 13C8 15.2091 9.79086 17 12 17Z" stroke="black" stroke-linecap="round" stroke-linejoin="round"/>
<path d="M42.2578 6.44531V13.9453C42.2578 15.2734 41.8932 16.3099 41.1641 17.0547C40.4401 17.7995 39.3359 18.1719 37.8516 18.1719C36.3672 18.1719 35.2708 17.7995 34.5625 17.0547C33.8542 16.3099 33.5 15.2682 33.5 13.9297V6.44531H34.8594V13.9531C34.8594 15 35.1068 15.7708 35.6016 16.2656C36.0964 16.7604 36.862 17.0078 37.8984 17.0078C38.9089 17.0078 39.6615 16.7578 40.1562 16.2578C40.6562 15.7578 40.9062 14.987 40.9062 13.9453V6.44531H42.2578ZM44.6328 21.7188V9.42969H45.7812L45.9062 10.5938C46.6562 9.69792 47.5573 9.25 48.6094 9.25C49.3906 9.25 50.0521 9.44531 50.5938 9.83594C51.1354 10.2266 51.5339 10.7552 51.7891 11.4219C52.0495 12.0885 52.1797 12.8672 52.1797 13.7578C52.1797 14.612 52.0391 15.3724 51.7578 16.0391C51.4766 16.7005 51.0625 17.224 50.5156 17.6094C49.974 17.9896 49.3385 18.1797 48.6094 18.1797C48.0573 18.1797 47.5391 18.0573 47.0547 17.8125C46.5703 17.5625 46.1823 17.2344 45.8906 16.8281C45.9219 17.3906 45.9375 17.9375 45.9375 18.4688V21.6328L44.6328 21.7188ZM48.4297 17.0781C48.8255 17.0781 49.1797 16.9896 49.4922 16.8125C49.8047 16.6302 50.0573 16.3828 50.25 16.0703C50.4427 15.7578 50.5885 15.4036 50.6875 15.0078C50.7865 14.6068 50.8359 14.1745 50.8359 13.7109C50.8359 12.7318 50.6302 11.9297 50.2188 11.3047C49.8073 10.6745 49.2057 10.3594 48.4141 10.3594C46.7578 10.3594 45.9297 11.4297 45.9297 13.5703C45.9297 14.7318 46.1224 15.6068 46.5078 16.1953C46.8984 16.7839 47.5391 17.0781 48.4297 17.0781ZM56.3281 18.1562C55.4948 18.1562 54.9036 17.9323 54.5547 17.4844C54.2109 17.0365 54.0391 16.2578 54.0391 15.1484V6.10156L55.3359 6.02344V14.6328C55.3359 14.987 55.3385 15.2708 55.3438 15.4844C55.3542 15.6979 55.375 15.9089 55.4062 16.1172C55.4375 16.3203 55.4792 16.474 55.5312 16.5781C55.5833 16.6823 55.6589 16.7786 55.7578 16.8672C55.8568 16.9505 55.974 17.0078 56.1094 17.0391C56.25 17.0651 56.4219 17.0781 56.625 17.0781C56.7917 17.0781 57.1198 17.0469 57.6094 16.9844L57.6797 18.0234C57.1432 18.112 56.6927 18.1562 56.3281 18.1562ZM59.4297 13.7344C59.4297 14.75 59.6536 15.5651 60.1016 16.1797C60.5547 16.7891 61.2135 17.0938 62.0781 17.0938C62.9323 17.0938 63.5755 16.7891 64.0078 16.1797C64.4453 15.5703 64.6641 14.75 64.6641 13.7188C64.6641 12.6719 64.4479 11.849 64.0156 11.25C63.5885 10.6458 62.9349 10.3438 62.0547 10.3438C61.2005 10.3438 60.5495 10.651 60.1016 11.2656C59.6536 11.8802 59.4297 12.7031 59.4297 13.7344ZM66.0156 13.7109C66.0156 15.0391 65.6615 16.1172 64.9531 16.9453C64.2448 17.7682 63.2656 18.1797 62.0156 18.1797C60.8125 18.1797 59.8542 17.763 59.1406 16.9297C58.4323 16.0964 58.0781 15.026 58.0781 13.7188C58.0781 12.3854 58.4349 11.3073 59.1484 10.4844C59.862 9.66146 60.8411 9.25 62.0859 9.25C63.3099 9.25 64.2708 9.66406 64.9688 10.4922C65.6667 11.3151 66.0156 12.388 66.0156 13.7109ZM70.2188 17.125C70.8385 17.125 71.3828 16.9557 71.8516 16.6172C72.3255 16.2734 72.6302 15.8125 72.7656 15.2344V13.7891C72.7396 13.7891 72.5807 13.8021 72.2891 13.8281C72.0026 13.8542 71.8151 13.8698 71.7266 13.875C70.5964 13.974 69.8073 14.1589 69.3594 14.4297C68.9167 14.7005 68.6953 15.1354 68.6953 15.7344C68.6953 16.1927 68.8307 16.5391 69.1016 16.7734C69.3724 17.0078 69.7448 17.125 70.2188 17.125ZM73.0547 18C72.9766 17.6667 72.901 17.3073 72.8281 16.9219C72.3542 17.3958 71.9089 17.724 71.4922 17.9062C71.0755 18.0885 70.5859 18.1797 70.0234 18.1797C69.2214 18.1797 68.5755 17.9714 68.0859 17.5547C67.6016 17.1328 67.3594 16.5286 67.3594 15.7422C67.3594 14.8672 67.6901 14.2188 68.3516 13.7969C69.0182 13.375 69.9766 13.112 71.2266 13.0078C71.3984 12.9922 71.6562 12.9714 72 12.9453C72.349 12.9141 72.6094 12.8906 72.7812 12.875V12.1172C72.7812 11.513 72.6406 11.0651 72.3594 10.7734C72.0781 10.4818 71.6354 10.3359 71.0312 10.3359C70.1875 10.3359 69.3359 10.5443 68.4766 10.9609C68.4505 10.8984 68.3828 10.7188 68.2734 10.4219C68.1641 10.1198 68.1068 9.96354 68.1016 9.95312C68.4818 9.73958 68.9323 9.57031 69.4531 9.44531C69.9792 9.3151 70.513 9.25 71.0547 9.25C72.1224 9.25 72.8906 9.48438 73.3594 9.95312C73.8333 10.4167 74.0703 11.2083 74.0703 12.3281V18H73.0547ZM79.6641 17.0547C80.5234 17.0547 81.1615 16.7786 81.5781 16.2266C82 15.6745 82.2109 14.8854 82.2109 13.8594C82.2109 12.7031 82.0078 11.8333 81.6016 11.25C81.2005 10.6615 80.5495 10.3672 79.6484 10.3672C79.2474 10.3672 78.8932 10.4531 78.5859 10.625C78.2786 10.7969 78.0312 11.0365 77.8438 11.3438C77.6562 11.651 77.513 12.0052 77.4141 12.4062C77.3203 12.8021 77.2734 13.237 77.2734 13.7109C77.2734 14.3776 77.3542 14.9557 77.5156 15.4453C77.6823 15.9349 77.9479 16.3255 78.3125 16.6172C78.6771 16.9089 79.1276 17.0547 79.6641 17.0547ZM82.2344 16.7578C81.9531 17.1901 81.5781 17.5339 81.1094 17.7891C80.6406 18.0443 80.1172 18.1719 79.5391 18.1719C78.4089 18.1719 77.5234 17.7708 76.8828 16.9688C76.2422 16.1615 75.9219 15.0651 75.9219 13.6797C75.9219 12.3568 76.2474 11.2891 76.8984 10.4766C77.5495 9.65885 78.4219 9.25 79.5156 9.25C80.0833 9.25 80.6172 9.375 81.1172 9.625C81.6224 9.86979 82 10.2005 82.25 10.6172L82.2266 9.875V6.10156L83.5156 6.02344V18H82.4062L82.2344 16.7578ZM99.1562 18H97.625L91.625 8.90625L91.2344 8.36719C91.276 9.46094 91.2969 10.4375 91.2969 11.2969V18H90.0312V6.44531H91.5391L97.5547 15.5391L97.9531 16.0781C97.9167 14.4167 97.8984 13.4557 97.8984 13.1953V6.44531H99.1562V18ZM106.57 11.0156C106.19 10.5573 105.667 10.3281 105 10.3281C104.333 10.3281 103.789 10.5651 103.367 11.0391C102.945 11.5078 102.698 12.151 102.625 12.9688H107.148C107.148 12.1198 106.956 11.4688 106.57 11.0156ZM105.258 18.1797C104.013 18.1797 103.031 17.7839 102.312 16.9922C101.599 16.2005 101.242 15.1172 101.242 13.7422C101.242 12.4141 101.589 11.3385 102.281 10.5156C102.974 9.6875 103.885 9.26562 105.016 9.25C106.078 9.25 106.919 9.61458 107.539 10.3438C108.164 11.0677 108.477 12.0365 108.477 13.25C108.477 13.3125 108.474 13.4271 108.469 13.5938C108.469 13.7604 108.469 13.8802 108.469 13.9531H102.586C102.602 14.9271 102.852 15.6875 103.336 16.2344C103.826 16.776 104.482 17.0469 105.305 17.0469C106.211 17.0469 107.12 16.8073 108.031 16.3281L108.234 17.3828C107.365 17.9141 106.372 18.1797 105.258 18.1797ZM117.688 18C116.484 14.1562 115.74 11.763 115.453 10.8203C115.292 11.3932 115.107 12.013 114.898 12.6797C114.69 13.3464 114.508 13.9193 114.352 14.3984C114.195 14.8776 113.992 15.4974 113.742 16.2578C113.492 17.0182 113.302 17.599 113.172 18H111.766L109.32 9.42969H110.672L112.508 16.4453C112.763 15.612 113.513 13.2734 114.758 9.42969H116.234C117.474 13.3568 118.203 15.6875 118.422 16.4219L120.234 9.42969H121.57L119.102 18H117.688Z" fill="#2E2E2E"/>
</svg>
